Coordinates
version=1
nRows=6
nColumns=46
inDegrees=yes

Units are S.I. units (second, meters, Newtons, ...)
Angles are in degrees.

endheader
time	pelvis_tilt	pelvis_list	pelvis_rotation	pelvis_tx	pelvis_ty	pelvis_tz	bb_angle	bb_tx	bb_ty	bb_tz	hip_flexion_r	hip_adduction_r	hip_rotation_r	knee_angle_r	knee_angle_r_beta	ankle_angle_r	subtalar_angle_r	mtp_angle_r	crank_angle_r	hip_flexion_l	hip_adduction_l	hip_rotation_l	knee_angle_l	knee_angle_l_beta	ankle_angle_l	subtalar_angle_l	mtp_angle_l	crank_angle_l	lumbar_extension	lumbar_bending	lumbar_rotation	arm_flex_r	arm_add_r	arm_rot_r	elbow_flex_r	pro_sup_r	wrist_flex_r	wrist_dev_r	arm_flex_l	arm_add_l	arm_rot_l	elbow_flex_l	pro_sup_l	wrist_flex_l	wrist_dev_l
      5.00000000	     -1.25642559	     -5.40322715	      2.83552263	      0.05225473	      1.18296265	     -0.27007584	      0.00000000	      0.50000000	      0.00000000	      0.25000000	     69.70053025	      0.15531369	      4.29314977	    108.11316333	      1.88693066	    -19.24700074	     -9.24469128	      0.00000000	      0.00000000	     25.02081995	     -8.26686855	     -5.73115238	     24.64188795	      0.43008208	     -1.76841544	     10.48442278	      0.00000000	      0.00000000	    -68.11012065	      9.69288878	      5.19091778	     89.20340859	     -7.34741362	     32.43183200	     42.40392949	     36.16733198	      0.00000000	      0.00000000	     88.89525976	    -17.94064659	     53.57873950	     44.19752541	     28.92360231	      0.00000000	      0.00000000
      5.00500000	     -1.16839189	     -6.03718098	      2.29745504	      0.05313302	      1.18329620	     -0.27145932	      0.00000000	      0.50000000	      0.00000000	      0.25000000	     70.70263838	      0.77310207	      4.12230556	    108.54041834	      1.89438767	    -18.67746624	     -8.47351462	      0.00000000	      0.00000000	     23.79797779	     -9.24346648	     -7.09605459	     23.64463496	      0.41267673	     -2.48400142	     13.65461778	      0.00000000	      0.00000000	    -68.25034110	     10.10284721	      5.47837951	     89.28994313	     -6.46798207	     32.74368821	     42.13650871	     36.08113701	      0.00000000	      0.00000000	     88.70407448	    -18.89112581	     53.70547241	     44.26282442	     29.20269089	      0.00000000	      0.00000000
      5.01000000	     -1.25908138	     -6.48495101	      1.95393619	      0.05359914	      1.18355182	     -0.27339748	      0.00000000	      0.50000000	      0.00000000	      0.25000000	     71.86251625	      1.06788638	      4.10719467	    108.85613908	      1.89989804	    -18.10694392	     -7.65936821	      0.00000000	      0.00000000	     22.92333122	     -9.62671468	     -7.09640040	     23.26491493	      0.40604937	     -2.44664448	     11.65665626	      0.00000000	      0.00000000	    -68.23336343	     10.65429034	      5.20834468	     89.39234964	     -5.00859599	     32.68621004	     41.57958951	     35.34179942	      0.00000000	      0.00000000	     88.44718208	    -20.57985192	     53.98596815	     45.03361533	     30.78565781	      0.00000000	      0.00000000
      5.01500000	     -1.38261107	     -7.02809206	      1.50884483	      0.05399699	      1.18396568	     -0.27495086	      0.00000000	      0.50000000	      0.00000000	      0.25000000	     72.95734164	      1.52550596	      3.92074361	    108.95964209	      1.90170451	    -17.81783893	     -7.27357832	      0.00000000	      0.00000000	     22.13499887	    -10.19985992	     -7.33787872	     22.83225605	      0.39849804	     -2.61823944	     11.54633632	      0.00000000	      0.00000000	    -68.24599790	     11.06581812	      5.65127676	     89.42935344	     -4.55221322	     32.82394969	     41.69926129	     35.34124481	      0.00000000	      0.00000000	     88.27247665	    -20.98851671	     53.90846080	     44.83806842	     30.80237736	      0.00000000	      0.00000000
      5.02000000	     -1.47248751	     -7.52508970	      0.99255904	      0.05429816	      1.18458659	     -0.27617172	      0.00000000	      0.50000000	      0.00000000	      0.25000000	     73.91735498	      2.08860349	      3.77334825	    108.93160313	      1.90121513	    -17.36254123	     -6.87803939	      0.00000000	      0.00000000	     21.39445889	    -10.76356363	     -7.60758501	     22.61574610	      0.39471923	     -2.75331800	     11.32297173	      0.00000000	      0.00000000	    -68.34682083	     11.36106784	      5.99516020	     89.47438967	     -3.96157809	     32.99865275	     41.77277039	     35.32918381	      0.00000000	      0.00000000	     88.10260536	    -21.51546819	     53.81261717	     44.66897223	     30.82512224	      0.00000000	      0.00000000
      5.02500000	     -1.57827314	     -7.96750185	      0.41304016	      0.05442420	      1.18525806	     -0.27699696	      0.00000000	      0.50000000	      0.00000000	      0.25000000	     74.80675369	      2.76823007	      3.72527095	    108.78589335	      1.89867202	    -16.67703507	     -6.21321315	      0.00000000	      0.00000000	     20.84006657	    -11.31517578	     -7.93027621	     22.75780077	      0.39719855	     -2.82116192	     10.96280255	      0.00000000	      0.00000000	    -68.46832960	     11.64433500	      5.44484105	     89.55801606	     -1.96330282	     32.93440865	     40.96955644	     34.47752171	      0.00000000	      0.00000000	     87.66388334	    -23.76846856	     53.33182631	     46.08354045	     31.96233929	      0.00000000	      0.00000000
